<svg width="494px" height="494px" viewBox="0 0 494 494" version="1.1" xmlns="http://www.w3.org/2000/svg" xmlns:xlink="http://www.w3.org/1999/xlink">
    <!-- Generator: Sketch 45.1 (43504) - http://www.bohemiancoding.com/sketch -->
    <desc>Created with Sketch.</desc>
    <defs></defs>
    <g id="Page-1" stroke="none" stroke-width="1" fill="none" fill-rule="evenodd">
        <g id="icon" fill-rule="nonzero">
            <g id="Background" fill="#202329">
                <circle id="Oval" cx="247" cy="247" r="247"></circle>
            </g>
            <g id="Colors_1_" transform="translate(73.000000, 71.000000)">
                <g id="Group">
                    <path d="M175.9,72.3 C186.2,72.3 196.5,73.8 206.8,76.6 C214.3,78.7 220.7,76.4 224.6,69.6 C232,56.6 231.3,57.7 246.5,30.5 C247.2,29.3 247.3,27.1 247.3,25.7 C247.3,24.1 247.1,23 246.5,21.5 C243.7,15 237.7,12.2 231.8,9.7 C218.1,4.1 203.6,2.1 189,1 C184.6,0.7 180.2,0.5 175.9,0.4 L175.9,0.4 C171.5,0.4 167.2,0.6 162.8,1 C148.2,2.1 133.7,4.1 120,9.7 C114.1,12.1 108.1,15 105.3,21.5 C104.7,23 104.5,24.1 104.5,25.7 C104.5,27.1 104.7,29.3 105.3,30.5 C120.5,57.7 119.8,56.6 127.2,69.6 C131.1,76.4 137.5,78.7 145,76.6 C155.3,73.8 165.6,72.4 175.9,72.3" id="Shape" fill="#F44E5B"></path>
                    <path d="M276,153.7 C278,161.2 283.2,165.6 291.1,165.5 C306,165.3 304.8,165.3 335.9,164.6 C337.3,164.6 339.3,163.6 340.5,162.9 C341.9,162.1 342.7,161.4 343.7,160.1 C347.9,154.4 347.3,147.8 346.4,141.4 C344.3,126.8 338.7,113.2 332.3,100.1 C330.4,96.1 328.3,92.3 326.2,88.5 C324,84.8 321.6,81.1 319.1,77.5 C310.7,65.5 301.7,53.9 289.9,45 C284.8,41.1 279.3,37.4 272.3,38.3 C270.7,38.5 269.7,38.9 268.3,39.7 C267.1,40.4 265.3,41.7 264.6,42.9 C248.8,69.7 249.4,68.6 242,81.6 C238.1,88.4 239.4,95.1 245,100.5 C252.4,107.7 258.9,115.9 264.1,124.8 C269.3,133.7 273.3,143.3 276,153.7 Z" id="Shape" fill="#D764F9"></path>
                    <path d="M262.2,229.6 C256.9,238.5 250.4,246.6 242.7,254 C237.1,259.4 235.8,266.1 239.6,272.9 C247,285.9 246.4,284.8 262.1,311.7 C262.8,312.9 264.6,314.2 265.8,314.9 C267.2,315.7 268.2,316.1 269.8,316.3 C276.8,317.2 282.3,313.5 287.4,309.6 C299.2,300.7 308.3,289.2 316.7,277.2 C319.2,273.6 321.6,269.9 323.9,266.2 L323.9,266.2 C326.1,262.4 328.1,258.6 330.1,254.6 C336.6,241.5 342.3,227.9 344.4,213.3 C345.3,207 345.9,200.4 341.8,194.6 C340.9,193.3 340,192.6 338.6,191.8 C337.4,191.1 335.4,190.1 334,190.1 C302.9,189.3 304.1,189.3 289.2,189 C281.4,188.9 276.1,193.2 274.1,200.8 C271.4,211.1 267.4,220.7 262.2,229.6" id="Shape" fill="#36A4FF"></path>
                    <path d="M175.9,279.7 C186.2,279.7 196.5,278.2 206.8,275.4 C214.3,273.3 220.7,275.6 224.6,282.4 C232,295.4 231.3,294.3 246.5,321.5 C247.2,322.7 247.3,324.9 247.3,326.3 C247.3,327.9 247.1,329 246.5,330.5 C243.7,337 237.7,339.8 231.8,342.3 C218.1,347.9 203.6,349.9 189,351 C184.6,351.3 180.2,351.5 175.9,351.6 L175.9,351.6 C171.5,351.6 167.2,351.4 162.8,351 C148.2,349.9 133.7,347.9 120,342.3 C114.1,339.9 108.1,337 105.3,330.5 C104.7,329 104.5,327.9 104.5,326.3 C104.5,324.9 104.7,322.7 105.3,321.5 C120.5,294.3 119.8,295.4 127.2,282.4 C131.1,275.6 137.5,273.3 145,275.4 C155.3,278.2 165.6,279.6 175.9,279.7" id="Shape" fill="#86EB75"></path>
                    <path d="M85.8,229.6 C91.1,238.5 97.6,246.6 105.3,254 C110.9,259.4 112.2,266.1 108.4,272.9 C101,285.9 101.6,284.8 85.9,311.7 C85.2,312.9 83.4,314.2 82.2,314.9 C80.8,315.7 79.8,316.1 78.2,316.3 C71.2,317.2 65.7,313.5 60.6,309.6 C48.8,300.7 39.7,289.2 31.3,277.2 C28.8,273.6 26.4,269.9 24.1,266.2 L24.1,266.2 C21.9,262.4 19.9,258.6 17.9,254.6 C11.4,241.5 5.7,227.9 3.6,213.3 C2.7,207 2.1,200.4 6.2,194.6 C7.1,193.3 8,192.6 9.4,191.8 C10.6,191.1 12.6,190.1 14,190.1 C45.1,189.3 43.9,189.3 58.8,189 C66.6,188.9 71.9,193.2 73.9,200.8 C76.6,211.1 80.6,220.7 85.8,229.6" id="Shape" fill="#EE904B"></path>
                    <path d="M83.9,124.8 C78.7,133.7 74.7,143.3 72,153.7 C70,161.2 64.8,165.6 56.9,165.5 C42,165.3 43.2,165.3 12.1,164.6 C10.7,164.6 8.7,163.6 7.5,162.9 C6.1,162.1 5.3,161.4 4.3,160.1 C0.1,154.4 0.7,147.8 1.6,141.4 C3.7,126.8 9.3,113.2 15.7,100.1 C17.6,96.1 19.7,92.3 21.8,88.5 L21.8,88.5 C24,84.8 26.4,81.1 28.9,77.5 C37.3,65.5 46.3,53.9 58.1,45 C63.2,41.1 68.7,37.4 75.7,38.3 C77.3,38.5 78.3,38.9 79.7,39.7 C80.9,40.4 82.7,41.7 83.4,42.9 C99.2,69.7 98.6,68.6 106,81.6 C109.9,88.4 108.6,95.1 103,100.5 C95.6,107.7 89.1,115.9 83.9,124.8" id="Shape" fill="#8E9CB5"></path>
                </g>
            </g>
        </g>
    </g>
</svg>