<svg xmlns="http://www.w3.org/2000/svg" xmlns:xlink="http://www.w3.org/1999/xlink" viewBox="0 0 100 125" version="1.1" x="0px" y="0px"><title>Artboard</title><desc>Created with Sketch.</desc><g stroke="none" stroke-width="1" fill="none" fill-rule="evenodd"><path d="M50,37.1435112 C53.3986144,33.9537068 57.9711509,32 63,32 C73.4934102,32 82,40.5065898 82,51 C82,61.4934102 73.4934102,70 63,70 C57.9711509,70 53.3986144,68.0462932 50,64.8564888 C46.6013856,68.0462932 42.0288491,70 37,70 C26.5065898,70 18,61.4934102 18,51 C18,40.5065898 26.5065898,32 37,32 C42.0288491,32 46.6013856,33.9537068 50,37.1435112 Z M46.3050585,41.9216716 C43.9441735,39.5021961 40.6475151,38 37,38 C29.8202983,38 24,43.8202983 24,51 C24,58.1797017 29.8202983,64 37,64 C40.6475151,64 43.9441735,62.4978039 46.3050585,60.0783284 C44.8352141,57.3810161 44,54.2880454 44,51 C44,47.7119546 44.8352141,44.6189839 46.3050585,41.9216716 Z" fill="#000000" fill-rule="nonzero"/></g></svg>